<?xml version="1.0" encoding="UTF-8" standalone="no"?>
<svg width="15px" height="11px" viewBox="0 0 15 11" version="1.1" xmlns="http://www.w3.org/2000/svg" xmlns:xlink="http://www.w3.org/1999/xlink">
    <!-- Generator: Sketch 44.1 (41455) - http://www.bohemiancoding.com/sketch -->
    <title>speaker</title>
    <desc>Created with Sketch.</desc>
    <defs></defs>
    <g id="Page-1" stroke="none" stroke-width="1" fill="none" fill-rule="evenodd">
        <g id="speaker" fill="#969696">
            <polygon id="SPEAKER" fill-rule="nonzero" points="7 0 3.5 3 0 3 0 8 3.5 8 7 11"></polygon>
            <path d="M12.9375,0.4375 L12,0.84375 C12.935794,2.15885 13.5,3.7648 13.5,5.5 C13.5,7.2352 12.935794,8.84105 12,10.15625 L12.9375,10.5625 C13.921777,9.1246 14.5,7.3764 14.5,5.5 C14.5,3.6236 13.921777,1.8754 12.9375,0.4375 Z" id="BAR3"></path>
            <path d="M11.03125,1.25 L10.09375,1.625 C10.974439,2.6715 11.5,4.0213 11.5,5.5 C11.5,6.9787 10.974439,8.3285 10.09375,9.375 L11.03125,9.75 C11.946229,8.5688 12.5,7.1086 12.5,5.5 C12.5,3.8914 11.946229,2.4312 11.03125,1.25 Z" id="BAR2"></path>
            <path d="M9.09375,2.03125 L8.09375,2.46875 C8.952946,3.20105 9.5,4.2776 9.5,5.5 C9.5,6.7224 8.952946,7.79885 8.09375,8.53125 L9.09375,8.96875 C9.968074,8.07025 10.5,6.8464 10.5,5.5 C10.5,4.1536 9.968074,2.92965 9.09375,2.03125 Z" id="BAR1"></path>
        </g>
    </g>
</svg>